<svg width="63" height="37" viewBox="0 0 63 37" fill="none" xmlns="http://www.w3.org/2000/svg">
<path d="M34.7355 32.0017C28.6706 34.9694 13.2326 31.7319 13.5082 17.163M13.5082 17.163C12.6812 16.0838 12.2401 15.5982 11.5785 10.4182C12.2888 10.8816 13.5277 12.4991 13.584 15.5442M13.5082 17.163C13.5405 16.8631 13.5621 16.5738 13.5742 16.295M13.5742 16.295C15.2063 14.8757 18.2499 11.7132 17.3677 10.4182C16.2236 11.6657 13.8651 14.4374 13.584 15.5442M13.5742 16.295C13.5855 16.0357 13.5884 15.7855 13.584 15.5442M13.584 15.5442C13.6867 15.1663 13.8253 14.6652 13.9749 14.1373M14.8866 11.2275C14.8147 11.3683 14.6876 11.7424 14.537 12.2263M14.8866 11.2275C15.9894 10.7846 18.691 9.43808 20.6759 7.59542C23.157 5.29208 15.8159 9.60878 15.2901 10.4182M14.8866 11.2275C14.9505 11.1025 15.0736 10.8182 15.2901 10.4182M36.6653 4.75249C30.3246 0.975346 23.984 3.13372 21.7786 4.2129C21.2857 4.49215 20.827 4.77619 20.4002 5.06208M13.9749 14.1373C13.7274 12.4479 13.5634 8.58353 14.8866 6.64102C14.9293 8.20618 14.919 11.5145 14.537 12.2263M13.9749 14.1373C14.1611 13.4799 14.3645 12.7809 14.537 12.2263M15.4968 10.0525C15.1623 9.06919 15.9894 7.18064 17.3677 2.59411C17.7353 3.82616 18.2499 6.55129 17.3677 7.59542M15.4968 10.0525C15.8817 9.39912 16.473 8.53895 17.3677 7.59542M15.4968 10.0525C15.4199 10.1829 15.3513 10.3052 15.2901 10.4182M17.3677 7.59542C17.7436 7.19902 18.2559 6.78792 18.7461 6.37126M17.3677 7.59542C19.0218 6.37126 23.4327 8.52961 25.9966 5.06208C24.2597 5.83167 20.0031 5.39193 18.7461 6.37126M18.7461 6.37126C17.6434 5.02229 22.0543 2.86394 24.2597 0.435791C24.5354 0.975379 23.2673 3.36723 20.4002 5.06208M18.7461 6.37126C19.2565 5.93744 19.75 5.49761 20.4002 5.06208" stroke="#EFEAD7" stroke-width="0.5"/>
<path d="M20.0771 24.8307C18.8105 24.8418 17.7539 24.491 16.9073 23.7784C16.0201 22.9995 15.5709 21.9901 15.5595 20.7501C15.5489 19.6035 15.9466 18.62 16.7524 17.7996C17.5849 16.9789 18.5678 16.5636 19.7011 16.5537C20.5144 16.5465 21.2299 16.7736 21.8475 17.2349C22.5186 17.7223 22.8579 18.3661 22.8652 19.166C22.8723 19.9393 22.618 20.5616 22.1023 21.0328C21.5996 21.4639 20.9616 21.6828 20.1883 21.6896C19.6683 21.6942 19.3278 21.6371 19.1667 21.5185L19.1463 21.4787C19.1858 21.425 19.2256 21.398 19.2656 21.3977C19.2789 21.3976 19.2923 21.4041 19.3058 21.4173C19.3728 21.4567 19.473 21.4825 19.6065 21.4947C19.7533 21.5067 19.92 21.5119 20.1066 21.5103C20.8399 21.5039 21.418 21.2855 21.8407 20.8551C22.2636 20.438 22.4716 19.8628 22.4649 19.1295C22.4583 18.4096 22.2063 17.8318 21.7089 17.3961C21.2117 16.9738 20.6098 16.7657 19.9031 16.7719C18.8098 16.7815 17.9131 17.1427 17.213 17.8555C16.526 18.5549 16.1876 19.4579 16.1978 20.5645C16.2088 21.7645 16.6041 22.7077 17.3838 23.3942C18.1366 24.0543 19.1263 24.379 20.3529 24.3683C22.9928 24.3451 25.7546 22.3542 28.6384 18.3954C30.864 15.3624 32.6134 13.4737 33.8866 12.7292L29.6737 11.346C29.3794 11.242 29.0788 11.1713 28.7718 11.1339C28.4781 11.0965 28.1779 11.0791 27.8712 11.0818C26.8313 11.091 25.8805 11.3726 25.0189 11.9269C24.0515 12.5754 23.5723 13.3929 23.5813 14.3796C23.5855 14.8329 23.6962 15.2719 23.9134 15.6967C24.3754 16.6394 25.2464 17.1051 26.5264 17.0939C26.633 17.0929 26.733 17.092 26.8264 17.0912C26.9197 17.0904 27.013 17.0829 27.1062 17.0688C27.6921 16.9836 28.2163 16.7124 28.6788 16.255C29.1941 15.7438 29.4493 15.2215 29.4444 14.6882C29.4407 14.2882 29.2713 13.9897 28.9362 13.7926C28.9227 13.7794 28.9159 13.7594 28.9156 13.7328C28.9154 13.7061 28.9286 13.6927 28.9553 13.6924C28.9686 13.6923 28.9753 13.6989 28.9754 13.7123C28.9888 13.7121 29.0021 13.712 29.0154 13.7119L29.0754 13.7114C29.5042 13.9343 29.7209 14.2991 29.7255 14.8057C29.7305 15.3524 29.502 15.8744 29.0399 16.3718C28.6171 16.8022 28.1131 17.0933 27.5278 17.2451C27.1687 17.3416 26.7824 17.3916 26.3691 17.3952C25.4358 17.4034 24.6398 17.1171 23.9811 16.5361C23.3088 15.9154 22.9683 15.1383 22.9597 14.205C22.9491 13.0451 23.4138 12.1076 24.354 11.3927C25.2013 10.7319 26.2182 10.3963 27.4048 10.3859C27.4848 10.3852 27.5582 10.3846 27.6248 10.384C27.7048 10.3833 27.7782 10.3893 27.845 10.402C29.4328 10.5215 31.1777 11.0462 33.0797 11.9762C33.2135 12.0284 33.3676 12.107 33.5419 12.2122C33.7294 12.3039 33.9438 12.422 34.1851 12.5665C34.8074 12.0811 35.5651 11.8344 36.4584 11.8266C36.6451 11.825 36.8253 11.8434 36.999 11.8819C37.1859 11.9069 37.3464 11.9588 37.4804 12.0376C37.8556 12.2344 38.0448 12.5127 38.0481 12.8727C38.0537 13.486 37.7232 13.7956 37.0566 13.8014C36.8566 13.8032 36.6296 13.7718 36.3757 13.7074C36.1351 13.6428 35.9679 13.5843 35.8741 13.5318C35.7426 13.7329 35.6045 13.9475 35.46 14.1754C35.3154 14.4034 35.1643 14.6514 35.0068 14.9194C34.7967 15.2813 34.4246 16.1379 33.8903 17.4893C33.6819 18.0245 33.4595 18.4931 33.2232 18.8952C33.0002 19.2972 32.7567 19.646 32.4928 19.9417C31.4236 21.1244 30.1915 21.9953 28.7966 22.5542C28.8233 22.5539 28.8566 22.5536 28.8966 22.5533C28.9498 22.5395 29.0164 22.5322 29.0964 22.5315L29.3964 22.5289C29.6764 22.5265 29.9298 22.5376 30.1567 22.5622C30.397 22.5868 30.6173 22.6182 30.8176 22.6565C31.6061 22.8495 32.067 22.9455 32.2003 22.9443C32.4403 22.9422 32.5594 22.8412 32.5575 22.6412C32.5568 22.5612 32.5429 22.4947 32.5157 22.4416C32.5019 22.3883 32.4949 22.3484 32.4946 22.3217C32.4942 22.2817 32.494 22.2551 32.4939 22.2417C32.4938 22.2284 32.4937 22.2217 32.4937 22.2217C32.5069 22.2083 32.5135 22.2016 32.5135 22.2016C32.5268 22.2015 32.5402 22.208 32.5537 22.2212C32.6748 22.3402 32.7363 22.4996 32.7381 22.6996C32.7427 23.2063 32.4051 23.4626 31.7251 23.4685C31.5918 23.4697 31.445 23.4577 31.2848 23.4324C31.1245 23.4071 30.9507 23.3553 30.7633 23.277L29.86 22.9249C29.6191 22.8203 29.3718 22.7558 29.1182 22.7314C28.8648 22.7202 28.6047 22.7159 28.3381 22.7182L28.3175 22.6584C29.099 22.0915 29.8196 21.4252 30.4793 20.6593C30.9544 20.1218 31.5136 19.3102 32.157 18.2245C32.1964 18.1575 32.2751 18.0235 32.3933 17.8225L29.3734 17.8489C28.6366 18.9221 27.9451 19.8549 27.299 20.6472C26.6528 21.4262 26.0585 22.0515 25.5162 22.5229C23.8234 24.0445 22.0104 24.8137 20.0771 24.8307ZM36.7151 13.6444C37.3951 13.6384 37.7328 13.3888 37.7283 12.8955C37.7256 12.6022 37.6035 12.3766 37.3621 12.2187C37.1473 12.0606 36.8866 11.9828 36.5799 11.9855C35.7533 11.9928 35.0086 12.2126 34.3459 12.6451C34.56 12.7366 34.7744 12.8414 34.9888 12.9595C35.2031 13.0643 35.4174 13.1691 35.6317 13.2739L36.4836 12.3864C36.5102 12.3862 36.5237 12.3994 36.5239 12.426C36.5247 12.506 36.3344 12.841 35.9531 13.4311C36.2078 13.5755 36.4618 13.6466 36.7151 13.6444ZM29.5314 17.6275L32.5313 17.6012C33.3585 16.2073 34.3456 14.7986 35.4926 13.3751L34.0873 12.8074C33.756 13.0237 33.3786 13.3136 32.9553 13.6774C32.5453 14.041 32.1027 14.4849 31.6275 15.0091C30.8091 15.9229 30.1105 16.7958 29.5314 17.6275ZM38.6465 28.6281C37.4599 28.6385 36.8628 28.2303 36.8552 27.4037C36.8454 26.3371 37.5094 25.3179 38.8472 24.3461C39.5759 23.8331 40.3388 23.4197 41.1359 23.106C41.9331 22.7924 42.7779 22.5916 43.6705 22.5038L44.1026 21.64C43.611 21.8309 43.1257 21.9819 42.6467 22.0927C42.1676 22.1903 41.6947 22.2411 41.228 22.2452C39.8814 22.257 38.798 21.8931 37.9779 21.1536C37.1575 20.3875 36.7411 19.3311 36.7287 17.9845C36.7098 15.9179 37.5325 14.0373 39.197 12.3426C38.4717 11.7623 38.1061 11.1521 38.1002 10.5121C38.0959 10.0455 38.2787 9.61721 38.6484 9.22729C39.0576 8.77035 39.8488 8.53674 41.0221 8.52646C41.7554 8.52003 42.3499 8.64149 42.8055 8.89084C42.8855 8.89013 42.9258 8.92312 42.9264 8.98978C42.927 9.05644 42.874 9.09024 42.7673 9.09118C42.674 9.092 42.5471 9.06644 42.3866 9.01451C41.9852 8.85803 41.5045 8.78224 40.9445 8.78715C39.8645 8.79661 39.1865 9.0159 38.9104 9.445C38.6737 9.80709 38.5572 10.1881 38.5609 10.5881C38.5661 11.1481 38.8375 11.6657 39.3752 12.141C41.3047 10.2574 43.6093 9.30381 46.2892 9.28031C48.5425 9.26056 49.674 9.78399 49.6838 10.8506C49.6856 11.0506 49.6608 11.2508 49.6093 11.4513C49.5056 11.7722 49.2751 12.0809 48.9178 12.3774C47.8328 13.2936 46.2504 13.7608 44.1704 13.7791C42.5972 13.7928 41.2345 13.5048 40.0823 12.9149C39.383 13.721 38.8248 14.6393 38.4075 15.6696C37.9115 16.834 37.6678 17.8829 37.6764 18.8162C37.6952 20.8694 38.878 21.8858 41.2245 21.8652C42.3045 21.8557 43.3293 21.6534 44.2991 21.2582C44.7179 20.4012 45.078 19.6847 45.3794 19.1087C45.6807 18.5193 45.9233 18.0772 46.1073 17.7822C47.1312 16.0265 47.9365 15.1461 48.5231 15.141C48.9898 15.1369 49.2255 15.3948 49.2303 15.9148C49.2367 16.6214 48.7725 17.6122 47.8375 18.8871C47.5609 19.2629 47.2243 19.6325 46.8276 19.996C46.4308 20.3462 45.9605 20.677 45.4167 20.9884L44.9503 22.4726C45.9645 22.5703 46.4736 22.8259 46.4774 23.2392C46.4782 23.3325 46.4453 23.3795 46.3787 23.3801C46.3253 23.3805 46.2316 23.3347 46.0974 23.2425C45.7751 22.992 45.3603 22.8356 44.853 22.7734C44.3601 24.2711 43.8766 25.3487 43.4026 26.0063C42.1651 27.7372 40.5798 28.6111 38.6465 28.6281ZM44.1888 13.5989C44.5354 13.5959 44.8686 13.5796 45.1884 13.5501C45.5213 13.5072 45.8342 13.4511 46.1269 13.3819C46.819 13.2425 47.4436 13.017 48.0007 12.7054C48.7835 12.2719 49.1992 11.8016 49.2478 11.2945C49.2608 11.2543 49.2671 11.2143 49.2667 11.1743C49.2664 11.1343 49.266 11.0943 49.2656 11.0543C49.2562 10.0277 48.5649 9.52037 47.1916 9.53241C45.8716 9.54398 44.6009 9.83513 43.3794 10.4059C42.1578 10.9633 41.1116 11.7458 40.2409 12.7535C41.3129 13.3308 42.6288 13.6126 44.1888 13.5989ZM45.5332 20.6074C45.9307 20.3372 46.308 20.0406 46.665 19.7174C47.0221 19.3943 47.3522 19.038 47.6553 18.6487C48.42 17.7086 48.7988 16.8519 48.7917 16.0786C48.7882 15.692 48.6731 15.4997 48.4464 15.5016C48.3931 15.5021 48.3399 15.5159 48.2868 15.543C48.2337 15.5702 48.174 15.604 48.1077 15.6446C47.2068 16.2792 46.3487 17.9335 45.5332 20.6074ZM38.5238 28.3291C39.6437 28.3193 40.8546 27.322 42.1564 25.3372C42.301 25.1092 42.4847 24.7809 42.7074 24.3523C42.9436 23.9369 43.2123 23.4278 43.5134 22.8252C41.7956 23.0669 40.3142 23.6532 39.0694 24.5842C37.851 25.4882 37.2456 26.3602 37.2533 27.2002C37.2566 27.5602 37.3792 27.8391 37.621 28.037C37.8629 28.2349 38.1638 28.3323 38.5238 28.3291Z" fill="#EFEAD7"/>
<ellipse cx="36.1829" cy="31.5679" rx="0.482438" ry="0.478956" fill="#EFEAD7"/>
</svg>
